%TF.GenerationSoftware,KiCad,Pcbnew,(5.1.9)-1*%
%TF.CreationDate,2021-06-08T21:22:11+02:00*%
%TF.ProjectId,Stonehenge,53746f6e-6568-4656-9e67-652e6b696361,rev?*%
%TF.SameCoordinates,Original*%
%TF.FileFunction,Copper,L1,Top*%
%TF.FilePolarity,Positive*%
%FSLAX46Y46*%
G04 Gerber Fmt 4.6, Leading zero omitted, Abs format (unit mm)*
G04 Created by KiCad (PCBNEW (5.1.9)-1) date 2021-06-08 21:22:11*
%MOMM*%
%LPD*%
G01*
G04 APERTURE LIST*
%TA.AperFunction,NonConductor*%
%ADD10C,1.000000*%
%TD*%
%TA.AperFunction,SMDPad,CuDef*%
%ADD11C,0.100000*%
%TD*%
%TA.AperFunction,SMDPad,CuDef*%
%ADD12C,0.700000*%
%TD*%
%TA.AperFunction,SMDPad,CuDef*%
%ADD13C,1.000000*%
%TD*%
%TA.AperFunction,SMDPad,CuDef*%
%ADD14R,0.700000X0.700000*%
%TD*%
%TA.AperFunction,SMDPad,CuDef*%
%ADD15R,1.000000X1.600000*%
%TD*%
%TA.AperFunction,SMDPad,CuDef*%
%ADD16R,1.600000X1.000000*%
%TD*%
%TA.AperFunction,NonConductor*%
%ADD17C,0.254000*%
%TD*%
%TA.AperFunction,NonConductor*%
%ADD18C,0.100000*%
%TD*%
G04 APERTURE END LIST*
D10*
X111144681Y-101988671D02*
G75*
G02*
X73600001Y-78899999I-8044681J28988671D01*
G01*
X124154223Y-51829292D02*
G75*
G02*
X115700000Y-100100000I-21154223J-21170708D01*
G01*
X73318356Y-70000019D02*
G75*
G02*
X121999999Y-50000001I29681644J-2999981D01*
G01*
%TA.AperFunction,SMDPad,CuDef*%
D11*
%TO.P,REF\u002A\u002A,2*%
%TO.N,N/C*%
G36*
X77946515Y-72474670D02*
G01*
X77668678Y-70898978D01*
X78653485Y-70725330D01*
X78931322Y-72301022D01*
X77946515Y-72474670D01*
G37*
%TD.AperFunction*%
%TA.AperFunction,SMDPad,CuDef*%
%TO.P,REF\u002A\u002A,1*%
G36*
X74401207Y-73099804D02*
G01*
X74123370Y-71524112D01*
X75108177Y-71350464D01*
X75386014Y-72926156D01*
X74401207Y-73099804D01*
G37*
%TD.AperFunction*%
%TD*%
D12*
%TO.P,U1,74*%
%TO.N,N/C*%
X110080000Y-77830000D03*
%TO.P,U1,73*%
X104540000Y-80290000D03*
%TO.P,U1,72*%
X101960000Y-80350000D03*
%TO.P,U1,71*%
X99600000Y-80040000D03*
%TO.P,U1,70*%
X96980000Y-69430000D03*
%TO.P,U1,69*%
X110380000Y-80530000D03*
D13*
X110940000Y-80150000D03*
%TA.AperFunction,SMDPad,CuDef*%
D11*
%TO.P,U1,68*%
G36*
X95924072Y-81052953D02*
G01*
X96759696Y-80057095D01*
X97295928Y-80507047D01*
X96460304Y-81502905D01*
X95924072Y-81052953D01*
G37*
%TD.AperFunction*%
%TO.P,U1,67*%
%TA.AperFunction,SMDPad,CuDef*%
G36*
G01*
X97040289Y-81075000D02*
X97040289Y-81075000D01*
G75*
G02*
X97586699Y-80928590I346410J-200000D01*
G01*
X97673301Y-80978590D01*
G75*
G02*
X97819711Y-81525000I-200000J-346410D01*
G01*
X97819711Y-81525000D01*
G75*
G02*
X97273301Y-81671410I-346410J200000D01*
G01*
X97186699Y-81621410D01*
G75*
G02*
X97040289Y-81075000I200000J346410D01*
G01*
G37*
%TD.AperFunction*%
%TA.AperFunction,SMDPad,CuDef*%
%TO.P,U1,66*%
G36*
X99858881Y-82309047D02*
G01*
X98939628Y-83080393D01*
X98361119Y-82390953D01*
X99280372Y-81619607D01*
X99858881Y-82309047D01*
G37*
%TD.AperFunction*%
%TA.AperFunction,SMDPad,CuDef*%
%TO.P,U1,65*%
G36*
X101138881Y-83709047D02*
G01*
X100219628Y-84480393D01*
X99641119Y-83790953D01*
X100560372Y-83019607D01*
X101138881Y-83709047D01*
G37*
%TD.AperFunction*%
D12*
%TO.P,U1,64*%
X111230000Y-72470000D03*
D14*
%TO.P,U1,63*%
X96030000Y-77110000D03*
D12*
%TO.P,U1,62*%
X95920000Y-74950000D03*
D14*
%TO.P,U1,61*%
X95490000Y-76230000D03*
%TO.P,U1,60*%
X95270000Y-73850000D03*
%TO.P,U1,59*%
X95280000Y-72430000D03*
D12*
%TO.P,U1,58*%
X100150000Y-72200000D03*
%TO.P,U1,57*%
X99850000Y-73790000D03*
%TO.P,U1,56*%
X99940000Y-75060000D03*
%TA.AperFunction,SMDPad,CuDef*%
D11*
%TO.P,U1,55*%
G36*
X104932843Y-73690102D02*
G01*
X105139898Y-74462843D01*
X104367157Y-74669898D01*
X104160102Y-73897157D01*
X104932843Y-73690102D01*
G37*
%TD.AperFunction*%
%TA.AperFunction,SMDPad,CuDef*%
%TO.P,U1,54*%
G36*
X106962843Y-73180102D02*
G01*
X107169898Y-73952843D01*
X106397157Y-74159898D01*
X106190102Y-73387157D01*
X106962843Y-73180102D01*
G37*
%TD.AperFunction*%
%TA.AperFunction,SMDPad,CuDef*%
%TO.P,U1,53*%
G36*
X104965460Y-63026094D02*
G01*
X104843906Y-63715460D01*
X104154540Y-63593906D01*
X104276094Y-62904540D01*
X104965460Y-63026094D01*
G37*
%TD.AperFunction*%
%TA.AperFunction,SMDPad,CuDef*%
%TO.P,U1,52*%
G36*
X105935460Y-63196094D02*
G01*
X105813906Y-63885460D01*
X105124540Y-63763906D01*
X105246094Y-63074540D01*
X105935460Y-63196094D01*
G37*
%TD.AperFunction*%
D14*
%TO.P,U1,51*%
X103000000Y-61320000D03*
%TO.P,U1,50*%
X102990000Y-62330000D03*
%TA.AperFunction,SMDPad,CuDef*%
D11*
%TO.P,U1,49*%
G36*
X105663906Y-61915460D02*
G01*
X104974540Y-61793906D01*
X105096094Y-61104540D01*
X105785460Y-61226094D01*
X105663906Y-61915460D01*
G37*
%TD.AperFunction*%
%TA.AperFunction,SMDPad,CuDef*%
%TO.P,U1,48*%
G36*
X105493906Y-62905460D02*
G01*
X104804540Y-62783906D01*
X104926094Y-62094540D01*
X105615460Y-62216094D01*
X105493906Y-62905460D01*
G37*
%TD.AperFunction*%
D14*
%TO.P,U1,47*%
X104090000Y-65160000D03*
%TA.AperFunction,SMDPad,CuDef*%
D11*
%TO.P,U1,46*%
G36*
X99395460Y-66713906D02*
G01*
X98706094Y-66835460D01*
X98584540Y-66146094D01*
X99273906Y-66024540D01*
X99395460Y-66713906D01*
G37*
%TD.AperFunction*%
%TA.AperFunction,SMDPad,CuDef*%
%TO.P,U1,45*%
G36*
X106991401Y-74809185D02*
G01*
X107230815Y-74151401D01*
X107888599Y-74390815D01*
X107649185Y-75048599D01*
X106991401Y-74809185D01*
G37*
%TD.AperFunction*%
%TA.AperFunction,SMDPad,CuDef*%
%TO.P,U1,44*%
G36*
X105095460Y-77073906D02*
G01*
X104406094Y-77195460D01*
X104284540Y-76506094D01*
X104973906Y-76384540D01*
X105095460Y-77073906D01*
G37*
%TD.AperFunction*%
%TA.AperFunction,SMDPad,CuDef*%
%TO.P,U1,43*%
G36*
X106215460Y-76873906D02*
G01*
X105526094Y-76995460D01*
X105404540Y-76306094D01*
X106093906Y-76184540D01*
X106215460Y-76873906D01*
G37*
%TD.AperFunction*%
%TA.AperFunction,SMDPad,CuDef*%
%TO.P,U1,42*%
G36*
X99785460Y-69643906D02*
G01*
X99096094Y-69765460D01*
X98974540Y-69076094D01*
X99663906Y-68954540D01*
X99785460Y-69643906D01*
G37*
%TD.AperFunction*%
D14*
%TO.P,U1,41*%
X103550000Y-68880000D03*
%TO.P,U1,40*%
X102450000Y-68870000D03*
%TO.P,U1,39*%
X102030000Y-73890000D03*
%TO.P,U1,38*%
X101040000Y-73890000D03*
%TA.AperFunction,SMDPad,CuDef*%
D11*
%TO.P,U1,37*%
G36*
X101550827Y-75268164D02*
G01*
X101611836Y-74570827D01*
X102309173Y-74631836D01*
X102248164Y-75329173D01*
X101550827Y-75268164D01*
G37*
%TD.AperFunction*%
%TA.AperFunction,SMDPad,CuDef*%
%TO.P,U1,36*%
G36*
X100620827Y-75178164D02*
G01*
X100681836Y-74480827D01*
X101379173Y-74541836D01*
X101318164Y-75239173D01*
X100620827Y-75178164D01*
G37*
%TD.AperFunction*%
%TA.AperFunction,SMDPad,CuDef*%
%TO.P,U1,35*%
G36*
X112762018Y-71152729D02*
G01*
X112699215Y-69954373D01*
X113597982Y-69907271D01*
X113660785Y-71105627D01*
X112762018Y-71152729D01*
G37*
%TD.AperFunction*%
%TA.AperFunction,SMDPad,CuDef*%
%TO.P,U1,34*%
G36*
X110812018Y-71262729D02*
G01*
X110749215Y-70064373D01*
X111647982Y-70017271D01*
X111710785Y-71215627D01*
X110812018Y-71262729D01*
G37*
%TD.AperFunction*%
%TA.AperFunction,SMDPad,CuDef*%
%TO.P,U1,1*%
%TO.N,Net-(U1-Pad1)*%
G36*
X92432178Y-72703378D02*
G01*
X92571627Y-71109466D01*
X93567822Y-71196622D01*
X93428373Y-72790534D01*
X92432178Y-72703378D01*
G37*
%TD.AperFunction*%
%TA.AperFunction,SMDPad,CuDef*%
%TO.P,U1,2*%
%TO.N,Net-(U1-Pad2)*%
G36*
X92571627Y-74890534D02*
G01*
X92432178Y-73296622D01*
X93428373Y-73209466D01*
X93567822Y-74803378D01*
X92571627Y-74890534D01*
G37*
%TD.AperFunction*%
%TA.AperFunction,SMDPad,CuDef*%
%TO.P,U1,3*%
%TO.N,Net-(U1-Pad3)*%
G36*
X93309904Y-77086048D02*
G01*
X92736515Y-75592320D01*
X93670096Y-75233952D01*
X94243485Y-76727680D01*
X93309904Y-77086048D01*
G37*
%TD.AperFunction*%
%TA.AperFunction,SMDPad,CuDef*%
%TO.P,U1,4*%
%TO.N,Net-(U1-Pad4)*%
G36*
X94389911Y-79003398D02*
G01*
X93542041Y-77646521D01*
X94390089Y-77116602D01*
X95237959Y-78473479D01*
X94389911Y-79003398D01*
G37*
%TD.AperFunction*%
%TA.AperFunction,SMDPad,CuDef*%
%TO.P,U1,5*%
%TO.N,Net-(U1-Pad5)*%
G36*
X95859922Y-80666082D02*
G01*
X94768724Y-79495916D01*
X95500078Y-78813918D01*
X96591276Y-79984084D01*
X95859922Y-80666082D01*
G37*
%TD.AperFunction*%
%TA.AperFunction,SMDPad,CuDef*%
%TO.P,U1,6*%
%TO.N,Net-(U1-Pad6)*%
G36*
X92716515Y-70417680D02*
G01*
X93289904Y-68923952D01*
X94223485Y-69282320D01*
X93650096Y-70776048D01*
X92716515Y-70417680D01*
G37*
%TD.AperFunction*%
%TA.AperFunction,SMDPad,CuDef*%
%TO.P,U1,7*%
%TO.N,Net-(U1-Pad7)*%
G36*
X93542041Y-68333479D02*
G01*
X94389911Y-66976602D01*
X95237959Y-67506521D01*
X94390089Y-68863398D01*
X93542041Y-68333479D01*
G37*
%TD.AperFunction*%
%TA.AperFunction,SMDPad,CuDef*%
%TO.P,U1,8*%
%TO.N,Net-(U1-Pad8)*%
G36*
X94738724Y-66434084D02*
G01*
X95829922Y-65263918D01*
X96561276Y-65945916D01*
X95470078Y-67116082D01*
X94738724Y-66434084D01*
G37*
%TD.AperFunction*%
%TA.AperFunction,SMDPad,CuDef*%
%TO.P,U1,9*%
%TO.N,N/C*%
G36*
X96288894Y-64865720D02*
G01*
X97583321Y-63925263D01*
X98171106Y-64734280D01*
X96876679Y-65674737D01*
X96288894Y-64865720D01*
G37*
%TD.AperFunction*%
%TA.AperFunction,SMDPad,CuDef*%
%TO.P,U1,10*%
G36*
X98153645Y-63654941D02*
G01*
X99603737Y-62978751D01*
X100026355Y-63885059D01*
X98576263Y-64561249D01*
X98153645Y-63654941D01*
G37*
%TD.AperFunction*%
%TA.AperFunction,SMDPad,CuDef*%
%TO.P,U1,11*%
G36*
X100213526Y-62777256D02*
G01*
X101778562Y-62444597D01*
X101986474Y-63422744D01*
X100421438Y-63755403D01*
X100213526Y-62777256D01*
G37*
%TD.AperFunction*%
%TA.AperFunction,SMDPad,CuDef*%
%TO.P,U1,12*%
G36*
X100444670Y-68603485D02*
G01*
X98868978Y-68881322D01*
X98695330Y-67896515D01*
X100271022Y-67618678D01*
X100444670Y-68603485D01*
G37*
%TD.AperFunction*%
%TA.AperFunction,SMDPad,CuDef*%
%TO.P,U1,13*%
G36*
X102434670Y-68243485D02*
G01*
X100858978Y-68521322D01*
X100685330Y-67536515D01*
X102261022Y-67258678D01*
X102434670Y-68243485D01*
G37*
%TD.AperFunction*%
%TA.AperFunction,SMDPad,CuDef*%
%TO.P,U1,14*%
G36*
X105141022Y-68521322D02*
G01*
X103565330Y-68243485D01*
X103738978Y-67258678D01*
X105314670Y-67536515D01*
X105141022Y-68521322D01*
G37*
%TD.AperFunction*%
%TA.AperFunction,SMDPad,CuDef*%
%TO.P,U1,15*%
G36*
X107131022Y-68881322D02*
G01*
X105555330Y-68603485D01*
X105728978Y-67618678D01*
X107304670Y-67896515D01*
X107131022Y-68881322D01*
G37*
%TD.AperFunction*%
D15*
%TO.P,U1,16*%
X108750000Y-74050000D03*
%TA.AperFunction,SMDPad,CuDef*%
D11*
%TO.P,U1,17*%
G36*
X105555330Y-77396515D02*
G01*
X107131022Y-77118678D01*
X107304670Y-78103485D01*
X105728978Y-78381322D01*
X105555330Y-77396515D01*
G37*
%TD.AperFunction*%
%TA.AperFunction,SMDPad,CuDef*%
%TO.P,U1,18*%
G36*
X103565330Y-77756515D02*
G01*
X105141022Y-77478678D01*
X105314670Y-78463485D01*
X103738978Y-78741322D01*
X103565330Y-77756515D01*
G37*
%TD.AperFunction*%
%TA.AperFunction,SMDPad,CuDef*%
%TO.P,U1,19*%
G36*
X98868978Y-77118678D02*
G01*
X100444670Y-77396515D01*
X100271022Y-78381322D01*
X98695330Y-78103485D01*
X98868978Y-77118678D01*
G37*
%TD.AperFunction*%
%TA.AperFunction,SMDPad,CuDef*%
%TO.P,U1,20*%
G36*
X105990706Y-83158166D02*
G01*
X104420103Y-83463461D01*
X104229294Y-82481834D01*
X105799897Y-82176539D01*
X105990706Y-83158166D01*
G37*
%TD.AperFunction*%
%TA.AperFunction,SMDPad,CuDef*%
%TO.P,U1,21*%
G36*
X108064205Y-82321383D02*
G01*
X106602532Y-82972162D01*
X106195795Y-82058617D01*
X107657468Y-81407838D01*
X108064205Y-82321383D01*
G37*
%TD.AperFunction*%
D16*
%TO.P,U1,22*%
X103000000Y-83000000D03*
%TA.AperFunction,SMDPad,CuDef*%
D11*
%TO.P,U1,23*%
G36*
X106386263Y-62998751D02*
G01*
X107836355Y-63674941D01*
X107413737Y-64581249D01*
X105963645Y-63905059D01*
X106386263Y-62998751D01*
G37*
%TD.AperFunction*%
%TA.AperFunction,SMDPad,CuDef*%
%TO.P,U1,24*%
G36*
X113567822Y-73296622D02*
G01*
X113428373Y-74890534D01*
X112432178Y-74803378D01*
X112571627Y-73209466D01*
X113567822Y-73296622D01*
G37*
%TD.AperFunction*%
%TA.AperFunction,SMDPad,CuDef*%
%TO.P,U1,25*%
G36*
X108369093Y-63993271D02*
G01*
X109339914Y-64698614D01*
X108810907Y-65426729D01*
X107840086Y-64721386D01*
X108369093Y-63993271D01*
G37*
%TD.AperFunction*%
%TA.AperFunction,SMDPad,CuDef*%
%TO.P,U1,26*%
G36*
X102106937Y-78315994D02*
G01*
X100911503Y-78420581D01*
X100833063Y-77524006D01*
X102028497Y-77419419D01*
X102106937Y-78315994D01*
G37*
%TD.AperFunction*%
%TA.AperFunction,SMDPad,CuDef*%
%TO.P,U1,27*%
G36*
X101906937Y-76325994D02*
G01*
X100711503Y-76430581D01*
X100633063Y-75534006D01*
X101828497Y-75429419D01*
X101906937Y-76325994D01*
G37*
%TD.AperFunction*%
%TA.AperFunction,SMDPad,CuDef*%
%TO.P,U1,28*%
G36*
X109531214Y-72885339D02*
G01*
X109489334Y-71686070D01*
X110388786Y-71654661D01*
X110430666Y-72853930D01*
X109531214Y-72885339D01*
G37*
%TD.AperFunction*%
%TA.AperFunction,SMDPad,CuDef*%
%TO.P,U1,29*%
G36*
X107501214Y-72935339D02*
G01*
X107459334Y-71736070D01*
X108358786Y-71704661D01*
X108400666Y-72903930D01*
X107501214Y-72935339D01*
G37*
%TD.AperFunction*%
%TA.AperFunction,SMDPad,CuDef*%
%TO.P,U1,30*%
G36*
X106411214Y-72975339D02*
G01*
X106369334Y-71776070D01*
X107268786Y-71744661D01*
X107310666Y-72943930D01*
X106411214Y-72975339D01*
G37*
%TD.AperFunction*%
%TA.AperFunction,SMDPad,CuDef*%
%TO.P,U1,31*%
G36*
X104481214Y-73055339D02*
G01*
X104439334Y-71856070D01*
X105338786Y-71824661D01*
X105380666Y-73023930D01*
X104481214Y-73055339D01*
G37*
%TD.AperFunction*%
%TA.AperFunction,SMDPad,CuDef*%
%TO.P,U1,32*%
G36*
X109730078Y-65763918D02*
G01*
X110821276Y-66934084D01*
X110089922Y-67616082D01*
X108998724Y-66445916D01*
X109730078Y-65763918D01*
G37*
%TD.AperFunction*%
%TA.AperFunction,SMDPad,CuDef*%
%TO.P,U1,33*%
G36*
X112080078Y-63643918D02*
G01*
X113171276Y-64814084D01*
X112439922Y-65496082D01*
X111348724Y-64325916D01*
X112080078Y-63643918D01*
G37*
%TD.AperFunction*%
%TD*%
D17*
X119273000Y-49574919D02*
X119273000Y-49975541D01*
X118889891Y-50933312D01*
X118313618Y-51605631D01*
X117647625Y-52081340D01*
X116286545Y-52373000D01*
X115624459Y-52373000D01*
X114662761Y-51988320D01*
X113905885Y-51420664D01*
X113629318Y-50683152D01*
X113724200Y-49734340D01*
X114502359Y-48080752D01*
X114959415Y-47715107D01*
X115584469Y-47536520D01*
X119273000Y-49574919D01*
%TA.AperFunction,NonConductor*%
D18*
G36*
X119273000Y-49574919D02*
G01*
X119273000Y-49975541D01*
X118889891Y-50933312D01*
X118313618Y-51605631D01*
X117647625Y-52081340D01*
X116286545Y-52373000D01*
X115624459Y-52373000D01*
X114662761Y-51988320D01*
X113905885Y-51420664D01*
X113629318Y-50683152D01*
X113724200Y-49734340D01*
X114502359Y-48080752D01*
X114959415Y-47715107D01*
X115584469Y-47536520D01*
X119273000Y-49574919D01*
G37*
%TD.AperFunction*%
M02*
